<svg xmlns="http://www.w3.org/2000/svg" viewBox="0 0 501.11 413.14"><defs><style>.cls-1{fill:#cddbf0;}.cls-2{fill:#403867;}.cls-2,.cls-28{opacity:0.3;}.cls-3{fill:#7ba859;}.cls-4{fill:#3d5539;}.cls-5{fill:#545172;}.cls-6{fill:#ffc672;}.cls-7{fill:#e7e6e9;}.cls-25,.cls-28,.cls-8{fill:#fffdff;}.cls-9{fill:#f7c4a5;}.cls-10,.cls-11,.cls-19{fill:#898192;}.cls-11{font-size:15.73px;}.cls-11,.cls-19{font-family:Montserrat-Bold, Montserrat;font-weight:700;}.cls-12{letter-spacing:-0.01em;}.cls-13{letter-spacing:-0.02em;}.cls-14{letter-spacing:0em;}.cls-15{fill:#e58c7e;}.cls-16{fill:#81a6d9;}.cls-17{fill:#d0cdd3;}.cls-18{fill:#bbde95;}.cls-19{font-size:22.55px;}.cls-20{letter-spacing:-0.01em;}.cls-21{letter-spacing:-0.02em;}.cls-22{letter-spacing:0em;}.cls-23,.cls-25{opacity:0.2;}.cls-24{fill:#935771;}.cls-26{fill:#cbcacb;}.cls-27{fill:#6f4c61;}.cls-29{fill:#f06f76;}.cls-30{fill:none;stroke:#cddbf0;stroke-linecap:round;stroke-miterlimit:10;stroke-width:6.73px;}</style></defs><g id="Capa_2" data-name="Capa 2"><g id="OBJECTS"><path class="cls-1" d="M365.43,55.64A123.23,123.23,0,0,0,288.7,82.3a161.33,161.33,0,1,0,36.15,214A123.77,123.77,0,1,0,365.43,55.64Z"/><path class="cls-2" d="M393.49,212.53h0a16.3,16.3,0,0,0-4.52-1.13l-.16,0c-.46-.05-.92-.08-1.37-.09h-.19c-.46,0-.92,0-1.37,0h-.14l-.4,0,1.62-3.86c3.59-8.53-14.62-24.34-40.67-35.3-3.07-1.3-6.12-2.46-9.1-3.5-1.14-5-2.32-9.4-5-10-3.38-.8-4,4.22-4.09,7.2l-1.64-.44a16.47,16.47,0,0,1-2-6.91c-.27-5.57,1.83-14.44-3.36-16.9s-6,3.87-8.59,5.87-3.61-3.25-4.45-8.91-1.58-13.11-7.62-12.45-5.84,14.31-4.58,26.74a90.53,90.53,0,0,0,1.79,10.83c-2.53.87-4.29,2.23-5.07,4.09l-2.25,5.35a51.18,51.18,0,0,0,27.33,67h0a50.86,50.86,0,0,0,32.44,2.43l.35.11.22.06.42.13.25.07.52.14.21.06.79.22.15,0,.7.18.3.08.63.16.33.08.69.16.31.08,1,.24h0c7.33,1.65,18.06,3.25,27.58,1.51,8.67-1.59,16.51-10.07,17.47-18.91A13.46,13.46,0,0,0,393.49,212.53ZM383,237.05a47.5,47.5,0,0,1-12,.42l-1.79-.16-.33,0-1.57-.19-.17,0c-.58-.07-1.15-.16-1.72-.24l-.24,0-1-.16a50.9,50.9,0,0,0,15.57-14.76l0,0,.19-.08c.68-.27,1.44-.54,2.24-.78l.19,0a18.94,18.94,0,0,1,2.53-.55l.2,0c.42,0,.85-.09,1.28-.11a8.41,8.41,0,0,1,3.56.56h0c2.45,1,3.42,2.64,3.14,5.2C392.68,230.43,388.23,236.09,383,237.05Z"/><path class="cls-2" d="M430.33,252.72H377.54a8,8,0,0,0-8,8V287a8,8,0,0,0,8,8h5v9.79l9.79-9.79h38a8,8,0,0,0,8-8V260.75A8,8,0,0,0,430.33,252.72Z"/><path class="cls-2" d="M192.27,69.78H152.42a4.78,4.78,0,0,0-4.77,4.77v27.52a4.78,4.78,0,0,0,4.77,4.77H167.9l4.44,7.69,4.45-7.69h15.48a4.77,4.77,0,0,0,4.76-4.77V74.55A4.77,4.77,0,0,0,192.27,69.78Z"/><rect class="cls-2" x="252.21" y="92.59" width="170.44" height="120.48" rx="4.95" transform="translate(14.68 -28.97) rotate(5.03)"/><path class="cls-2" d="M71.22,183.12,218.5,130.07a5.62,5.62,0,0,1,7.1,3.17l38.94,96a14.82,14.82,0,0,1-8.62,19.49L114,300.82a18.29,18.29,0,0,1-22.85-9.36L57.43,219.94a6.35,6.35,0,0,1,3.36-8.58L74,206,67.9,190.45A5.61,5.61,0,0,1,71.22,183.12Z"/><path class="cls-2" d="M135.16,308.58c4.59-.79,17.1,0,25.37,5.75s12.9,20.05,12.9,20.05,4.58-17.71-10.93-37-42.64-14.2-42.64-14.2S105.1,252,83.23,252.73,51.45,263,51.45,263s14.3-4.06,16,1.27-5.18,5.32-12.19,5.18-19.35,4.07-25.8,11.78-11.36,20.19-11.36,20.19,15.42-14.16,35.33-14.3,24.12,9.11,24.12,11.64-12.06-3.6-33.09.14C23.08,302.7,20.32,307.6,18.08,310s-4.77,10.94-5.33,17.95a80.61,80.61,0,0,0,0,12.76s9.54-13.88,25.38-15.56,21,5.6,20.47,7.71-9.53-1.68-24.54,2.8c-11.71,3.51-19.2,13.88-20.19,15.57S14.15,358.78,16,364a47.06,47.06,0,0,0,5.32,10.1s5.05-8.27,12.48-9.95,9.12,1.12,8.7,4.9-9.26.7-13.74,7.85-3.37,10.24-.56,17.39a27.27,27.27,0,0,1,1.12,14.44s8-3.36,14.3-2,11.64,4.35,13.6,2,1.54-10.09-.28-15.7,4-11.92,7.29-5.19,4.91,14.86,3.78,18.7-1.85,4.48-1.81,5.32,17.14,2.81,24.53-.65,7.2-11.31,6.54-16.83-6.54-22.52-9.77-28.27S84.54,355,89.31,356s18,21.54,19.63,34.35c2,15.89-1.27,18.23-1.27,18.23s10,.56,18.37-4.2,12.06-6.73,13.18-14.59,2.53-23.27-9.81-40.38S111.74,328.07,109.5,325s10.26-4.77,19.07,4.76,17.1,20.75,19.63,34.5,2.24,21.87,2.24,21.87,12.62-13.74,15.14-25.8.56-24-7-32.53-16.4-13-21.45-14.3S130.56,309.37,135.16,308.58Zm7.27-17.38c5.27-.13,7.35,4.25,6.33,6.31s-7.86,0-7.86,0c-4.76-.47-7.1,0-7.19-2S137.17,291.34,142.43,291.2ZM95.48,276.47c-3.18,1.69-12.06.56-15.52-3.64s1.78-5.8,6.17-5.42,9.35,3.92,9.35,3.92C97.91,272.84,98.65,274.79,95.48,276.47Z"/><path class="cls-3" d="M131.79,304.38c4.6-.79,17.11,0,25.38,5.75s12.9,20.05,12.9,20.05,4.58-17.72-10.94-37S116.49,279,116.49,279s-14.75-31.23-36.62-30.48-31.79,10.28-31.79,10.28,14.31-4.07,16,1.26-5.19,5.33-12.2,5.19S32.52,269.33,26.07,277s-11.36,20.19-11.36,20.19,15.43-14.16,35.34-14.3S74.16,292,74.16,294.56s-12-3.59-33.09.14c-21.36,3.8-24.11,8.7-26.36,11.08s-4.76,10.94-5.32,18a80.61,80.61,0,0,0,0,12.76s9.53-13.88,25.37-15.57,21,5.61,20.48,7.72S45.7,327,30.7,331.44C19,334.94,11.49,345.32,10.51,347s.28,7.57,2.1,12.76a46.86,46.86,0,0,0,5.33,10.1s5-8.27,12.48-10,9.11,1.12,8.69,4.91-9.25.7-13.74,7.85S22,382.9,24.81,390.05a27.27,27.27,0,0,1,1.12,14.44s8-3.37,14.3-2,11.64,4.34,13.6,2,1.55-10.1-.28-15.7,4-11.92,7.29-5.19,4.91,14.86,3.79,18.69-1.86,4.49-1.82,5.33S80,410.42,87.34,407s7.2-11.31,6.55-16.83-6.55-22.53-9.77-28.27-3-11.08,1.82-10.1,18,21.54,19.63,34.35c2,15.89-1.26,18.23-1.26,18.23s10,.56,18.37-4.21,12-6.73,13.18-14.58,2.52-23.27-9.82-40.38-17.66-21.31-19.91-24.4,10.27-4.76,19.07,4.77S142.31,346.3,144.83,360s2.24,21.88,2.24,21.88,12.62-13.75,15.15-25.8.56-24-7-32.53-16.41-13-21.46-14.3S127.19,305.17,131.79,304.38ZM139.07,287c5.27-.13,7.35,4.25,6.32,6.3s-7.85,0-7.85,0c-4.77-.46-7.11,0-7.2-2S133.8,287.13,139.07,287Zm-47-14.73c-3.18,1.68-12.06.56-15.52-3.64s1.78-5.8,6.17-5.43,9.35,3.93,9.35,3.93C94.55,268.63,95.29,270.59,92.11,272.27Z"/><path class="cls-4" d="M117,274.23a397.82,397.82,0,0,0-38.61,47.68C59,350,25.93,404.49,25.93,404.49s46-68.84,59-85.11,36.44-42.17,36.44-42.17Z"/><path class="cls-2" d="M3,141,68.68,62.53a12.63,12.63,0,0,1,21.53,3.78l35.06,96.13a12.62,12.62,0,0,1-14,16.76L10.45,161.49A12.62,12.62,0,0,1,3,141Z"/><path class="cls-5" d="M8.37,135.74,74.09,57.31a12.63,12.63,0,0,1,21.53,3.78l35.06,96.13a12.63,12.63,0,0,1-14,16.76L15.86,156.27A12.62,12.62,0,0,1,8.37,135.74Z"/><path class="cls-6" d="M84,64a1.3,1.3,0,0,1,1.08.9l35.06,96.13a1.4,1.4,0,0,1-1.56,1.86L17.8,145.23a1.41,1.41,0,0,1-.84-2.29L82.68,64.52A1.31,1.31,0,0,1,84,64"/><path class="cls-5" d="M77,127.72,68.9,126.3a4,4,0,0,1-3.24-4.43l3.41-25.34a9.1,9.1,0,0,1,10.59-7.74h0A9.09,9.09,0,0,1,87,99.68l-5.43,25A4,4,0,0,1,77,127.72Z"/><path class="cls-5" d="M78.72,139.82a7.9,7.9,0,1,1-6.42-9.16A7.92,7.92,0,0,1,78.72,139.82Z"/><rect class="cls-7" x="247.77" y="84.53" width="170.44" height="120.48" rx="4.95" transform="translate(13.96 -28.61) rotate(5.03)"/><path class="cls-5" d="M422.73,97.16a5,5,0,0,0-4.5-5.36L258.31,77.74a5,5,0,0,0-5.37,4.49l-.83,9.44L421.9,106.6Z"/><path class="cls-8" d="M397.41,97.21a4,4,0,1,1-3.61-4.31A4,4,0,0,1,397.41,97.21Z"/><path class="cls-8" d="M408.3,98.17a4,4,0,1,1-3.61-4.31A4,4,0,0,1,408.3,98.17Z"/><path class="cls-8" d="M419.19,99.12a4,4,0,1,1-3.6-4.3A4,4,0,0,1,419.19,99.12Z"/><rect class="cls-9" x="259.47" y="120.84" width="89.73" height="52.66" transform="translate(14.06 -26.09) rotate(5.03)"/><rect class="cls-10" x="363.26" y="127.62" width="38.18" height="4.25" transform="translate(12.77 -32.85) rotate(5)"/><rect class="cls-10" x="362.41" y="137.27" width="38.18" height="4.25" transform="translate(13.61 -32.74) rotate(5)"/><rect class="cls-10" x="361.57" y="146.92" width="38.18" height="4.25" transform="translate(14.45 -32.63) rotate(5)"/><rect class="cls-10" x="360.72" y="156.57" width="38.18" height="4.25" transform="translate(15.29 -32.52) rotate(5)"/><rect class="cls-10" x="359.88" y="166.18" width="38.18" height="4.25" transform="translate(16.12 -32.41) rotate(5)"/><rect class="cls-10" x="359.04" y="175.83" width="38.18" height="4.25" transform="translate(16.96 -32.3) rotate(5)"/><rect class="cls-10" x="357.7" y="190.88" width="38.18" height="4.25" transform="matrix(1, 0.09, -0.09, 1, 18.27, -32.13)"/><rect class="cls-10" x="356.85" y="200.53" width="38.18" height="4.25" transform="translate(19.11 -32.01) rotate(5)"/><rect class="cls-10" x="307.46" y="186.47" width="38.18" height="4.25" transform="translate(17.69 -27.76) rotate(5)"/><rect class="cls-10" x="306.61" y="196.12" width="38.18" height="4.25" transform="translate(18.53 -27.65) rotate(5)"/><rect class="cls-10" x="256.68" y="182" width="38.18" height="4.25" transform="matrix(1, 0.09, -0.09, 1, 17.11, -23.35)"/><rect class="cls-10" x="255.83" y="191.65" width="38.18" height="4.25" transform="translate(17.95 -23.24) rotate(5)"/><text class="cls-11" transform="translate(260.93 109.93) rotate(5)">BREAKING N<tspan class="cls-12" x="104.98" y="0">E</tspan><tspan class="cls-13" x="115.37" y="0">W</tspan><tspan class="cls-14" x="133.43" y="0">S</tspan></text><circle class="cls-15" cx="290.18" cy="143.34" r="19.49" transform="translate(58.45 369.29) rotate(-70.56)"/><rect class="cls-16" x="293.78" y="149.23" width="43.18" height="11.74" transform="translate(14.8 -27.03) rotate(5.03)"/><polygon class="cls-3" points="298.77 145.96 312.91 125.78 323.32 148.11 298.77 145.96"/><path class="cls-2" d="M116.49,279s-14.75-31.23-36.62-30.48c-1.22,0-2.39.11-3.53.21l6.85,14.52c4.28.55,8.92,3.87,8.92,3.87,2.44,1.5,3.18,3.46,0,5.14a9.36,9.36,0,0,1-4.32.75l6.81,14.43a18.29,18.29,0,0,0,22.85,9.36l13.07-4.8a1.51,1.51,0,0,1-.18-.67c-.09-2,3.46-4.21,8.73-4.34a7.52,7.52,0,0,1,3.34.64l7.33-2.69C134.64,275.63,116.49,279,116.49,279Z"/><path class="cls-2" d="M116.64,174a12.63,12.63,0,0,0,14-16.76l-3.27-8.95L75.9,166.82Z"/><path class="cls-8" d="M74.64,171.42l147.28-53a5.61,5.61,0,0,1,7.1,3.17l39,96A14.83,14.83,0,0,1,259.34,237L117.45,289.12a18.29,18.29,0,0,1-22.85-9.36L60.86,208.24a6.34,6.34,0,0,1,3.36-8.59l13.22-5.34-6.12-15.56A5.61,5.61,0,0,1,74.64,171.42Z"/><path class="cls-17" d="M77.44,194.31l-13.22,5.34a6.34,6.34,0,0,0-3.36,8.59L94.6,279.76a18.25,18.25,0,0,0,6.63,7.57c14.45-2.61,6-23.19,6-23.19Z"/><rect class="cls-16" x="104.09" y="203.46" width="51.59" height="51.59" transform="translate(-76.3 65.2) rotate(-21.96)"/><rect class="cls-18" x="110.31" y="235.49" width="51.59" height="18.35" transform="translate(-81.61 68.64) rotate(-21.96)"/><polygon class="cls-4" points="116.98 236.32 151.27 213.3 156.6 226.51 119.12 241.62 116.98 236.32"/><polygon class="cls-3" points="129.49 237.44 104.47 235.19 108.75 245.8 129.49 237.44"/><path class="cls-6" d="M122.39,219.83a6.36,6.36,0,1,1-8.28-3.52A6.37,6.37,0,0,1,122.39,219.83Z"/><rect class="cls-10" x="148.59" y="186.37" width="38.18" height="4.15" transform="translate(-58.3 76.37) rotate(-21.96)"/><rect class="cls-10" x="152.12" y="195.13" width="38.18" height="4.15" transform="translate(-61.32 78.33) rotate(-21.96)"/><rect class="cls-10" x="155.66" y="203.9" width="38.18" height="4.15" transform="translate(-64.34 80.28) rotate(-21.96)"/><rect class="cls-10" x="159.19" y="212.67" width="38.18" height="4.15" transform="translate(-67.37 82.24) rotate(-21.96)"/><rect class="cls-10" x="162.71" y="221.41" width="38.18" height="4.15" transform="translate(-70.38 84.19) rotate(-21.96)"/><rect class="cls-10" x="166.25" y="230.18" width="38.18" height="4.15" transform="translate(-73.4 86.15) rotate(-21.96)"/><rect class="cls-10" x="193.5" y="168.26" width="38.18" height="4.15" transform="translate(-48.27 91.85) rotate(-21.96)"/><rect class="cls-10" x="197.03" y="177.03" width="38.18" height="4.15" transform="translate(-51.29 93.81) rotate(-21.96)"/><rect class="cls-10" x="200.57" y="185.8" width="38.18" height="4.15" transform="translate(-54.31 95.76) rotate(-21.96)"/><rect class="cls-10" x="204.1" y="194.57" width="38.18" height="4.15" transform="translate(-57.34 97.72) rotate(-21.96)"/><rect class="cls-10" x="207.63" y="203.3" width="38.18" height="4.15" transform="translate(-60.35 99.67) rotate(-21.96)"/><rect class="cls-10" x="211.16" y="212.07" width="38.18" height="4.15" transform="translate(-63.37 101.63) rotate(-21.96)"/><rect class="cls-10" x="172.85" y="246.55" width="38.18" height="4.15" transform="translate(-79.04 89.81) rotate(-21.96)"/><rect class="cls-10" x="119.98" y="267.87" width="38.18" height="4.15" transform="translate(-90.85 71.58) rotate(-21.96)"/><rect class="cls-10" x="87.28" y="176.56" width="143.62" height="4.15" transform="translate(-55.25 72.45) rotate(-21.96)"/><rect class="cls-10" x="217.76" y="228.45" width="38.18" height="4.15" transform="translate(-69.01 105.29) rotate(-21.96)"/><text class="cls-19" transform="translate(88.27 194.96) rotate(-21.96)">N<tspan class="cls-20" x="18.22" y="0">E</tspan><tspan class="cls-21" x="33.13" y="0">W</tspan><tspan class="cls-22" x="59.02" y="0">S</tspan></text><polygon class="cls-10" points="87.42 243.99 97 240.12 95.37 236.31 85.87 240.14 87.42 243.99"/><polygon class="cls-10" points="90.94 252.72 100.7 248.78 99.07 244.97 89.39 248.87 90.94 252.72"/><polygon class="cls-10" points="83.88 235.22 93.28 231.43 91.65 227.61 82.33 231.37 83.88 235.22"/><polygon class="cls-10" points="76.81 217.68 85.86 214.03 84.23 210.22 75.26 213.83 76.81 217.68"/><polygon class="cls-10" points="102.78 253.67 92.92 257.64 94.47 261.49 104.41 257.48 102.78 253.67"/><polygon class="cls-10" points="80.35 226.45 89.57 222.73 87.94 218.91 78.8 222.6 80.35 226.45"/><polygon class="cls-2" points="439.15 227.3 415.54 220.97 421.86 244.59 426.8 239.65 437.03 249.88 444.44 242.47 434.21 232.24 439.15 227.3"/><polygon class="cls-8" points="441.39 220.3 417.78 213.97 424.11 237.58 429.05 232.65 439.28 242.88 446.69 235.47 436.45 225.24 441.39 220.3"/><path class="cls-4" d="M61.38,350.72s.72.69,1.84,1.93,2.68,3.08,4.39,5.38a75.88,75.88,0,0,1,5.32,8.22c.88,1.55,1.7,3.21,2.5,4.91s1.51,3.48,2.13,5.28a51.45,51.45,0,0,1,1.63,5.45c.24.91.39,1.83.59,2.73s.29,1.8.43,2.68.19,1.76.28,2.61.08,1.7.12,2.51a45.27,45.27,0,0,1-.13,4.6c0,.71-.11,1.38-.2,2s-.16,1.25-.25,1.82c-.22,1.13-.39,2.12-.58,2.93-.42,1.6-.65,2.51-.65,2.51l.55-2.53c.17-.81.29-1.81.48-2.94.07-.57.11-1.18.17-1.82s.12-1.32.13-2c.07-1.42,0-2.94,0-4.56L79.88,390c-.12-.84-.24-1.69-.37-2.57s-.32-1.74-.52-2.62-.41-1.77-.68-2.66a55,55,0,0,0-1.8-5.29c-.67-1.74-1.47-3.44-2.28-5.09s-1.7-3.23-2.63-4.72a72.16,72.16,0,0,0-5.49-7.83c-1.75-2.19-3.33-3.9-4.46-5.07s-1.81-1.76-1.81-1.76Z"/><path class="cls-4" d="M58.53,353.66l-.39-.37c-.27-.23-.67-.58-1.22-1a27.76,27.76,0,0,0-4.86-3,29,29,0,0,0-7.73-2.46,28.72,28.72,0,0,0-4.59-.37c-.79,0-1.58.06-2.38.08s-1.59.16-2.39.29A32.08,32.08,0,0,0,30.3,348a23.48,23.48,0,0,0-2.23.78c-.73.28-1.45.56-2.13.9-1.39.6-2.68,1.33-3.9,2s-2.34,1.4-3.33,2.12l-1.44,1-1.26,1c-.8.59-1.47,1.14-2,1.61l-1.71,1.45,1.65-1.52c.51-.5,1.17-1.07,1.94-1.7l1.22-1,1.41-1.06c1-.77,2.08-1.49,3.26-2.28s2.47-1.52,3.86-2.2a23.38,23.38,0,0,1,2.14-1A23.2,23.2,0,0,1,30,347.1a33.27,33.27,0,0,1,4.76-1.36c.82-.18,1.65-.28,2.47-.41s1.65-.19,2.47-.19a29.8,29.8,0,0,1,4.84.18,30.6,30.6,0,0,1,13.65,5.24c.61.42,1.07.79,1.39,1.05s.5.44.49.42Z"/><path class="cls-4" d="M83.23,317.6s-.2-.19-.63-.55-1.08-.88-2-1.49a45.39,45.39,0,0,0-7.7-4.34,48.72,48.72,0,0,0-5.56-2.09,51.77,51.77,0,0,0-6.46-1.55,53.85,53.85,0,0,0-7.08-.74c-1.22-.07-2.44,0-3.68,0s-2.46.1-3.69.23a59.43,59.43,0,0,0-7.31,1.13c-1.19.25-2.38.51-3.53.85s-2.3.62-3.4,1c-2.23.69-4.32,1.54-6.31,2.33s-3.82,1.66-5.47,2.55l-2.39,1.22-2.1,1.2c-1.33.74-2.48,1.41-3.39,2l-2.9,1.83,2.85-1.91c.9-.63,2-1.33,3.33-2.11l2.08-1.26,2.36-1.29c1.63-.94,3.49-1.77,5.42-2.72s4.07-1.76,6.29-2.52c1.1-.43,2.25-.77,3.41-1.12s2.35-.67,3.55-1a60.14,60.14,0,0,1,7.39-1.35c1.25-.17,2.51-.23,3.76-.35s2.51-.11,3.76-.07a55.79,55.79,0,0,1,7.29.55,54.19,54.19,0,0,1,6.7,1.42,49.38,49.38,0,0,1,5.82,2,48.12,48.12,0,0,1,8.18,4.31c.94.62,1.64,1.16,2.13,1.53s.75.62.74.61Z"/><path class="cls-4" d="M80.84,323.4s1.32.56,3.44,1.73a76.3,76.3,0,0,1,8.48,5.39c1.68,1.21,3.45,2.61,5.25,4.16s3.62,3.28,5.43,5.14a73.61,73.61,0,0,1,5.19,6.06,71.53,71.53,0,0,1,4.62,6.82,67.44,67.44,0,0,1,3.69,7.36c.52,1.25,1,2.49,1.45,3.75.22.63.44,1.26.65,1.88l.54,1.87c.17.62.34,1.24.52,1.85s.26,1.23.4,1.84l.39,1.79c.12.6.19,1.19.28,1.78.41,2.32.56,4.55.74,6.6,0,1,.06,2,.08,2.95a26.2,26.2,0,0,1,0,2.66c-.09,1.67-.06,3.13-.22,4.32-.23,2.38-.36,3.75-.36,3.75s.1-1.37.27-3.76c.12-1.19.06-2.65.1-4.31,0-.83,0-1.72-.06-2.65s-.1-1.91-.16-2.93c-.23-2-.43-4.25-.9-6.55-.11-.57-.19-1.16-.33-1.74s-.29-1.18-.43-1.78-.29-1.19-.44-1.8-.38-1.21-.56-1.82-.39-1.22-.58-1.84l-.69-1.83c-.43-1.24-1-2.45-1.53-3.66a64.63,64.63,0,0,0-3.81-7.15,67.45,67.45,0,0,0-4.71-6.57,68.63,68.63,0,0,0-5.24-5.82c-1.81-1.77-3.63-3.43-5.44-4.89s-3.56-2.79-5.24-3.93a74.06,74.06,0,0,0-8.38-5c-2.11-1.09-3.32-1.57-3.32-1.57Z"/><path class="cls-4" d="M97.72,298.67a32.09,32.09,0,0,0-1.91-2.75c-.64-.86-1.47-1.87-2.45-3s-2.14-2.38-3.49-3.65a55.28,55.28,0,0,0-10-7.69,50.84,50.84,0,0,0-6.39-3.21,46.42,46.42,0,0,0-7-2.28l-1.82-.42-1.83-.3c-1.21-.24-2.45-.31-3.66-.43s-2.44-.1-3.64-.15-2.38.08-3.55.11-2.31.24-3.43.35-2.19.37-3.25.54-2.07.44-3,.68-1.94.45-2.83.76c-1.79.57-3.44,1.07-4.85,1.66s-2.67,1-3.66,1.49l-3.14,1.44,3.1-1.52c1-.52,2.21-1,3.63-1.6s3-1.18,4.82-1.8c.88-.34,1.84-.57,2.82-.85s2-.58,3-.77,2.15-.49,3.28-.64,2.27-.34,3.45-.45,2.38-.2,3.6-.21,2.46-.06,3.71,0,2.5.13,3.75.34l1.88.25,1.86.38A48.23,48.23,0,0,1,74,277.12a52.85,52.85,0,0,1,6.66,3.12,57,57,0,0,1,10.56,7.64c1.42,1.27,2.64,2.54,3.7,3.67s1.94,2.18,2.64,3.06,1.22,1.58,1.57,2.08l.4.58.14.2Z"/><path class="cls-4" d="M97.32,298s1.38.42,3.66,1.32a99.38,99.38,0,0,1,9.25,4.21c1.88,1,3.86,2.07,5.93,3.29s4.2,2.61,6.35,4.12c1.08.74,2.14,1.55,3.23,2.34s2.15,1.66,3.2,2.55,2.12,1.78,3.14,2.73,2,1.9,3,2.88,1.94,2,2.9,3,1.83,2.09,2.73,3.13,1.72,2.14,2.52,3.22,1.59,2.15,2.3,3.25,1.43,2.16,2.06,3.25,1.26,2.15,1.82,3.2,1.07,2.11,1.58,3.11l1.33,3c.44.94.76,1.89,1.11,2.78s.68,1.72.92,2.53c.5,1.63,1,3,1.28,4.2l.94,3.7s-.38-1.33-1-3.67c-.33-1.17-.85-2.55-1.38-4.16-.27-.8-.65-1.62-1-2.5s-.7-1.81-1.17-2.74l-1.39-2.93c-.54-1-1.09-2-1.65-3s-1.25-2.07-1.89-3.14-1.41-2.09-2.13-3.17-1.56-2.09-2.35-3.16-1.71-2.07-2.57-3.12-1.83-2-2.78-3-1.91-2-2.94-2.91-2-1.88-3.07-2.76-2.1-1.77-3.16-2.61-2.16-1.63-3.21-2.43-2.16-1.53-3.24-2.24c-2.16-1.43-4.29-2.72-6.35-3.89s-4-2.19-5.91-3.09a99.16,99.16,0,0,0-9.16-3.89c-2.27-.83-3.55-1.18-3.55-1.18Z"/><path class="cls-2" d="M344.75,265.3l-2.24-8.78s-23.93-6.26-41.88-2.71-34.4,13.36-34.4,13.36-11-1.87-20,5.61A72.84,72.84,0,0,0,208,271.66c-27.4,6.75-42.25,19.89-42.25,19.89l2.36,9.34,7.42,3.08s1.33,17.42,11.05,23.59,31.6,4.32,45-1.64c13-5.79,16.45-12.36,17.38-22.59a129.48,129.48,0,0,0,.42-19.14,10.86,10.86,0,0,1,7.76-6.08,16.17,16.17,0,0,1,10.12,1.52s3.06,15.91,10,22.5c7.95,7.57,18.87,11.35,34.91,7.25,15.72-4,25.28-7.75,27.25-13.95s0-25.27,0-25.27Z"/><path class="cls-5" d="M250,267.6a72.72,72.72,0,0,0-38.22-1.12c-27.4,6.75-42.25,19.88-42.25,19.88l2.36,9.35,7.42,3.08s1.33,17.41,11,23.58,31.6,4.33,45-1.64c13-5.79,16.45-12.36,17.38-22.59a129.36,129.36,0,0,0,.42-19.13,10.81,10.81,0,0,1,7.76-6.08A16.13,16.13,0,0,1,271,274.45s3.07,15.91,10,22.5c8,7.57,18.87,11.35,34.91,7.25,15.72-4,25.27-7.76,27.24-13.95s0-25.27,0-25.27l5.34-4.86-2.24-8.79s-23.93-6.26-41.88-2.7S270,262,270,262,259,260.12,250,267.6Z"/><path class="cls-1" d="M184.72,289.23l4.34,18.93s3.57,10,16.45,9.5,30.11-3.51,36.17-12.67c4.75-7.18,2.8-21.7,1.73-27.65a3.66,3.66,0,0,0-3.19-3c-8.33-.94-34.44-2.56-54,11A3.71,3.71,0,0,0,184.72,289.23Z"/><path class="cls-1" d="M277.63,269.63a3.73,3.73,0,0,1,1.85-4.25c5.11-2.73,17-8.55,27.85-9.93a70.45,70.45,0,0,1,23.1.94,3.72,3.72,0,0,1,2.87,3c1.18,6.36,4.13,23.57,2.31,27.51-2.24,4.84-26.92,12.51-38.14,10.08C286.73,294.62,283,290.32,277.63,269.63Z"/><g class="cls-23"><path class="cls-8" d="M209.83,275.63l-21.55,29.14.78,3.39s3.19,8.91,14.34,9.49L235.72,274A98.84,98.84,0,0,0,209.83,275.63Z"/><path class="cls-8" d="M244.7,292.38a77.69,77.69,0,0,0-1.29-15,3.63,3.63,0,0,0-1.06-2l-31,41.91A75.25,75.25,0,0,0,229,313.64Z"/></g><g class="cls-23"><path class="cls-8" d="M307.33,255.45a64.31,64.31,0,0,0-13.55,3.5l-13.87,18.74c3.3,10.5,6.42,15,11.75,17.44l29.61-40A70.35,70.35,0,0,0,307.33,255.45Z"/><path class="cls-8" d="M333.3,259.36a3.72,3.72,0,0,0-2.87-3c-.6-.13-1.33-.27-2.13-.41l-30.37,41c4.09.77,9.81.3,15.57-.85l21.19-28.65C334.19,264.25,333.66,261.3,333.3,259.36Z"/></g><path class="cls-8" d="M226.15,277s9.33-.49,10.38,4.34-5.19,6.13-11.85,5.49S215,285,214.16,282,218.9,277,226.15,277Z"/><path class="cls-8" d="M210,282.37a3.58,3.58,0,1,1-3.58-3.58A3.57,3.57,0,0,1,210,282.37Z"/><path class="cls-8" d="M320.09,259.09s9.33-.49,10.38,4.35-5.19,6.12-11.85,5.48-9.67-1.82-10.52-4.85S312.85,259,320.09,259.09Z"/><path class="cls-8" d="M303.9,264.42a3.58,3.58,0,1,1-3.58-3.58A3.57,3.57,0,0,1,303.9,264.42Z"/><path class="cls-1" d="M324.87,349.67a25.23,25.23,0,0,0-11.65,2.84,18.29,18.29,0,0,0-35.07,7.25,17.9,17.9,0,0,0,.28,3h-.28a15.26,15.26,0,0,0-15.26,15.26h87a25.21,25.21,0,0,0-25-28.38Z"/><path class="cls-1" d="M391.2,10.72a33,33,0,0,1,15.24,3.72A23.9,23.9,0,0,1,452,27.91l.36,0a20,20,0,0,1,20,20H358.43a34.75,34.75,0,0,1-.26-4.11A33,33,0,0,1,391.2,10.72Z"/><path class="cls-2" d="M386.71,206.17h0a16.14,16.14,0,0,0-4.52-1.14l-.17,0c-.46,0-.91-.07-1.37-.09h-.19c-.46,0-.91,0-1.36,0h-.15l-.39,0,1.62-3.85c3.59-8.54-14.62-24.35-40.67-35.31q-4.62-1.94-9.11-3.5c-1.13-5-2.31-9.39-5-10-3.39-.8-4,4.22-4.09,7.2l-1.64-.43a16.51,16.51,0,0,1-2-6.91c-.27-5.57,1.82-14.44-3.37-16.91s-6,3.87-8.58,5.87-3.62-3.25-4.45-8.91-1.59-13.1-7.62-12.44-5.85,14.3-4.58,26.73a90.31,90.31,0,0,0,1.78,10.83c-2.53.88-4.28,2.24-5.06,4.1l-2.25,5.34a50.91,50.91,0,0,0-2,34l111,9.76A14.6,14.6,0,0,0,386.71,206.17Z"/><circle class="cls-2" cx="278.82" cy="149.71" r="4.83"/><path class="cls-2" d="M340.47,158.73a4,4,0,1,0-4-4A4,4,0,0,0,340.47,158.73Z"/><path class="cls-2" d="M320.76,127.73a3,3,0,1,0-3-3A3,3,0,0,0,320.76,127.73Z"/><path class="cls-2" d="M300.62,104.46a6.39,6.39,0,1,0-6.38-6.39A6.39,6.39,0,0,0,300.62,104.46Z"/><path class="cls-15" d="M345,233.91l2.9-8.49c.17.06,18.11,6.07,31.81,3.56,5.24-1,9.69-6.62,10.17-11,.28-2.57-.69-4.18-3.14-5.21h0c-4.22-1.77-10.69,1.08-12.63,2.22l-4.55-7.73c1.16-.69,11.59-6.57,20.65-2.76h0a13.47,13.47,0,0,1,8.58,14.45c-1,8.83-8.8,17.31-17.47,18.9C365.31,240.74,345.83,234.19,345,233.91Z"/><path class="cls-24" d="M367.73,229.4a92.36,92.36,0,0,1-19.82-4l-2.9,8.49a90.18,90.18,0,0,0,8.76,2.39A51.49,51.49,0,0,0,367.73,229.4Z"/><path class="cls-24" d="M369.56,207.22l4.55,7.73a22.1,22.1,0,0,1,9.07-2.78,50.62,50.62,0,0,0,2.32-4.8l1.61-3.84C378.92,201.93,370.59,206.61,369.56,207.22Z"/><path class="cls-15" d="M314.41,232.07h0a51.19,51.19,0,0,1-27.33-67l2.25-5.34,94.35,39.7-2.25,5.34A51.18,51.18,0,0,1,314.41,232.07Z"/><path class="cls-25" d="M302.24,171.33l2.67-4-8.94-6-2.67,4a42.18,42.18,0,0,0,11.43,58.56h0a43.25,43.25,0,0,0,4.67,2.72A42.19,42.19,0,0,1,302.24,171.33Z"/><path class="cls-25" d="M365,203.56l1.77-4.44,10,4-1.77,4.44a42.19,42.19,0,0,1-54.81,23.59h0a43.8,43.8,0,0,1-4.88-2.33A42.19,42.19,0,0,0,365,203.56Z"/><ellipse class="cls-7" cx="336.51" cy="179.55" rx="16.77" ry="51.18" transform="matrix(0.39, -0.92, 0.92, 0.39, 40.5, 420.08)"/><ellipse class="cls-26" cx="336.51" cy="179.55" rx="11.76" ry="42.36" transform="translate(40.5 420.08) rotate(-67.18)"/><g class="cls-23"><path class="cls-8" d="M391.3,229.86a2.48,2.48,0,0,1-.32-.17,2.24,2.24,0,0,1-.71-3.09c6.57-10.52-1.45-16.3-1.8-16.54a2.25,2.25,0,1,1,2.58-3.68c.11.08,11.82,8.51,3,22.6A2.25,2.25,0,0,1,391.3,229.86Z"/></g><path class="cls-27" d="M297.64,166.55c2.58,6.5,16.3,16.26,34.31,23.84,13.87,5.84,26.89,9,35.09,8.84l-.23-.11c-7.55-2.91-23.54-14.31-29.61-27-3.49-7.3-3.51-20.4-8.27-21.52s-4.07,9.29-4.07,9.29a16.92,16.92,0,0,1-3.65-9.43c-.27-5.57,1.83-14.44-3.36-16.91s-6,3.87-8.58,5.87-3.62-3.25-4.46-8.91-1.58-13.1-7.62-12.44-5.84,14.3-4.58,26.73A88,88,0,0,0,297.64,166.55Z"/><circle class="cls-27" cx="282.33" cy="148" r="4.83"/><path class="cls-27" d="M348,153a4,4,0,1,1-4-4A4,4,0,0,1,348,153Z"/><path class="cls-27" d="M327.29,123a3,3,0,1,1-3-3A3,3,0,0,1,327.29,123Z"/><path class="cls-27" d="M294.13,71.86a4,4,0,1,1-4-4A4,4,0,0,1,294.13,71.86Z"/><path class="cls-27" d="M310.53,96.36A6.39,6.39,0,1,1,304.14,90,6.39,6.39,0,0,1,310.53,96.36Z"/><path class="cls-28" d="M295.23,140.47s-1.36-7.43-.66-12.06,2.36-6.44,3.72-4.27.28,10.72,0,14.16S296,143.63,295.23,140.47Z"/><circle class="cls-28" cx="297.33" cy="147.81" r="1.64"/><path class="cls-28" d="M308.88,143.91c.14-.21,3.08-5.12,4.83-4.28s.7,4.25-2.42,6.54S307.75,145.57,308.88,143.91Z"/><path class="cls-28" d="M333,168.8a37.93,37.93,0,0,0,3.52,7.63c1.95,2.88,3.56,4.21,1.53,6.11s-4.77-1.76-6.52-6.17-3.51-10.17-1.75-11.22S332,166.13,333,168.8Z"/><path class="cls-28" d="M330.7,159.7s.84-3.15-.23-4.13-1.87-.42-2.24,1.87S329.89,161.78,330.7,159.7Z"/><circle class="cls-28" cx="280.2" cy="146.9" r="1.75"/><circle class="cls-28" cx="289.39" cy="70.37" r="1.26"/><path class="cls-28" d="M305,94.58a2.42,2.42,0,1,1-2.42-2.42A2.42,2.42,0,0,1,305,94.58Z"/><path class="cls-28" d="M324.54,122a1,1,0,1,1-1-1A1,1,0,0,1,324.54,122Z"/><path class="cls-28" d="M344.21,151.76a1.37,1.37,0,1,1-1.37-1.37A1.37,1.37,0,0,1,344.21,151.76Z"/><path class="cls-8" d="M196.05,65.69H156.21a4.77,4.77,0,0,0-4.77,4.77V98a4.77,4.77,0,0,0,4.77,4.77h15.48l4.44,7.69,4.44-7.69h15.48A4.77,4.77,0,0,0,200.82,98V70.46A4.77,4.77,0,0,0,196.05,65.69Z"/><path class="cls-29" d="M189.19,73.5a9.23,9.23,0,0,0-13.06,0,9.23,9.23,0,0,0-13.06,13.06l13.06,13.06,13.06-13.06A9.23,9.23,0,0,0,189.19,73.5Z"/><path class="cls-8" d="M425.42,249.32H372.63a8,8,0,0,0-8,8v26.23a8,8,0,0,0,8,8h5v9.78l9.78-9.78h38a8,8,0,0,0,8-8V257.35A8,8,0,0,0,425.42,249.32Z"/><path class="cls-5" d="M386.81,270.45a4.91,4.91,0,1,1-4.91-4.92A4.91,4.91,0,0,1,386.81,270.45Z"/><circle class="cls-5" cx="399.02" cy="270.45" r="4.91"/><path class="cls-5" d="M421.06,270.45a4.92,4.92,0,1,1-4.92-4.92A4.91,4.91,0,0,1,421.06,270.45Z"/><path class="cls-6" d="M120.7,27.44h-3.58V23.86a3.29,3.29,0,0,0-6.57,0v3.58H107A3.29,3.29,0,1,0,107,34h3.58V37.6a3.29,3.29,0,0,0,6.57,0V34h3.58a3.29,3.29,0,0,0,0-6.57Z"/><path class="cls-6" d="M458.7,153.73h-3.58v-3.58a3.29,3.29,0,0,0-6.57,0v3.58H445a3.29,3.29,0,1,0,0,6.57h3.58v3.58a3.29,3.29,0,1,0,6.57,0V160.3h3.58a3.29,3.29,0,0,0,0-6.57Z"/><path class="cls-6" d="M177.57,385.79H174v-3.58a3.29,3.29,0,1,0-6.57,0v3.58h-3.58a3.29,3.29,0,0,0,0,6.57h3.58v3.58a3.29,3.29,0,1,0,6.57,0v-3.58h3.59a3.29,3.29,0,0,0,0-6.57Z"/><path class="cls-1" d="M12.5,192.14A3.55,3.55,0,1,1,9,188.59,3.54,3.54,0,0,1,12.5,192.14Z"/><path class="cls-8" d="M230.26,96.36a3.55,3.55,0,1,1-3.54-3.55A3.54,3.54,0,0,1,230.26,96.36Z"/><path class="cls-8" d="M221.92,351.26a3.55,3.55,0,1,1-3.55-3.55A3.55,3.55,0,0,1,221.92,351.26Z"/><circle class="cls-8" cx="446.69" cy="109.93" r="3.55"/><path class="cls-1" d="M232.38,391.24a2.17,2.17,0,1,1-2.17-2.16A2.17,2.17,0,0,1,232.38,391.24Z"/><path class="cls-8" d="M446.61,194.31a2.17,2.17,0,1,1-2.17-2.16A2.17,2.17,0,0,1,446.61,194.31Z"/><path class="cls-8" d="M49,220.87a2.17,2.17,0,1,1-2.17-2.17A2.17,2.17,0,0,1,49,220.87Z"/><path class="cls-8" d="M359.75,69.11a2.17,2.17,0,1,1-2.17-2.17A2.17,2.17,0,0,1,359.75,69.11Z"/><path class="cls-8" d="M154.9,118.7a2.17,2.17,0,1,1-2.17-2.16A2.17,2.17,0,0,1,154.9,118.7Z"/><path class="cls-1" d="M428.34,351.26a2.72,2.72,0,1,1-2.72-2.71A2.72,2.72,0,0,1,428.34,351.26Z"/><path class="cls-1" d="M490.78,109a3.46,3.46,0,1,1-3.46-3.46A3.46,3.46,0,0,1,490.78,109Z"/><line class="cls-30" x1="245.31" y1="36.53" x2="261.1" y2="20.75"/><line class="cls-30" x1="487.32" y1="223.81" x2="497.75" y2="213.38"/><line class="cls-30" x1="356.74" y1="389.08" x2="379.71" y2="366.1"/><line class="cls-30" x1="3.5" y1="266.66" x2="13.87" y2="256.29"/></g></g></svg>